<svg xmlns="http://www.w3.org/2000/svg" xmlns:xlink="http://www.w3.org/1999/xlink" width="1070px" height="520px" old_viewBox="0 0 1070 520" preserveAspectRatio="xMidYMid meet" ><rect id="svgEditorBackground" x="0" y="0" width="1070" height="520" style="fill: none; stroke: none;"/><polygon stroke="black" id="e3_polygon" style="stroke-width: 1px;" points="21 450 11 275 34 211 28 115 16 40 68 9 141 2 142 6 191 11 193 13 282 25 335 8 411 33 427 47 403 84 330 77 277 66 217 95 162 90 116 62 93 97 91 147 124 184 103 227 92 273 119 304 61 365 66 410 112 420 126 449 84 494 39 488" fill="silver"/></svg>