<svg xmlns="http://www.w3.org/2000/svg" xmlns:xlink="http://www.w3.org/1999/xlink" width="1080px" height="480px" old_viewBox="0 0 1080 480" preserveAspectRatio="xMidYMid meet" ><rect id="svgEditorBackground" x="0" y="0" old_width="1080" old_height="480" style="fill: none; stroke: none;"/><polygon stroke="black" id="e3_polygon" style="stroke-width: 1px;" points="435 17 423 53 462 50 462 52 491 78 520 105 523 137 511 149 511 151 519 164 523 174 543 180 553 182 565 180 588 160 594 144 629 138 653 104 656 104 666 100 704 100 709 103 710 98 751 96 760 96 760 102 764 122 810 125 815 127 834 148 857 147 887 164 934 176 954 176 962 264 962 266 1027 299 1025 344 1024 346 1013 354 1012 356 1012 362 1009 369 995 402 995 409 1000 437 1008 440 1040 452 1073 331 1073 323 1073 320 1069 236 1062 205 1061 186 1061 184 1052 180 1045 180 1042 177 1032 132 1033 107 1022 84 996 70 989 59 983 59 937 29 877 25 856 17 854 17 845 18 761 7 671 12 647 12 607 4 592 2 505 8 465 8" fill="silver"/></svg>