<svg xmlns="http://www.w3.org/2000/svg" xmlns:xlink="http://www.w3.org/1999/xlink" width="1080px" height="480px" viewBox="0 0 1080 480" preserveAspectRatio="xMidYMid meet" ><rect id="svgEditorBackground" x="0" y="0" width="1080" height="480" style="fill: none; stroke: none;"/><polygon stroke="black" id="e3_polygon" style="stroke-width: 1px;" points="230 160 292 153 303 124 344 98.5 403 125 455.5 134.5 480.75 159.25 492.375 163.625 472 184 486 212 540 199 550 198 553 198 553 222 553 231 548 248 547 249 570 249 573 254 610 277 623 295 630 331 630 333 628 333 570 373 566 375 496 338 495 329 495 324 476 336 470 340 452 340 441 306 411 302 338 348 278 337 256 309 229 265 187 257 185 257 183 257 141 222 137 204 135 197 137 172 151 153 153 152 169 143 171 143" fill="gray" /></svg>