<svg xmlns="http://www.w3.org/2000/svg" xmlns:xlink="http://www.w3.org/1999/xlink" old_width="1080px" old_height="480px" old_viewBox="0 0 1080 480" preserveAspectRatio="xMidYMid meet" ><rect id="svgEditorBackground" x="0" y="0" old_width="1080" old_height="480" style="fill: none; stroke: none;"/><polygon stroke="black" id="e3_polygon" style="stroke-width: 1px;" points="243 126 368 63 383 26 423 29 433 26 462 10 492 39 549 34 550 35 551 41 576 60 576 62 631 75 636 77 699 85 746 76 786 117 829 133 831 133 847 145 846 160 846 194 846 200 842 200 840 200 815 189 810 193 789 229 789 234 814 249 816 256 816 261 808 281 793 285 770 297 765 342 796 375 784 394 778 399 695 426 669 461 601 465 499 461 497 460 481 413 500 377 538 374 542 377 570 359 571 358 624 366 627 367 633 367 633 351 632 340 638 332 642 331 648 283 656 283 650 240 640 239 608 237 582 180 553 171 547 171 540 171 532 174 532 202 531 207 536 210 537 212 540 213 548 219 558 230 561 243 565 248 569 251 570 267 571 274 571 282 564 289 549 293 546 296 546 310 476 312 457 342 447 342 438 344 433 373 433 376 392 394 363 383 362 417 323 406 306 376 305 373 287 322 287 315 324 254 332 222 328 219 321 213 317 213 298 201 281 203 277 203 258 194 244 168 229 157 216 125 232 114 242 115" fill="gray"/></svg>